{"title":"Ambushed(2013)MPEG-4[DaScubaDude]","uid":15196238,"size":1059143032,"categoryP":"video","categoryS":"movies","magnet":"?xt=urn:btih:5e60bf66dcf024f8e72a578827a40f1927623031&amp;dn=Ambushed%282013%29MPEG-4%5BDaScubaDude%5D&amp;tr=udp%3A%2F%2Ftracker.leechers-paradise.org%3A6969&amp;tr=udp%3A%2F%2Fzer0day.ch%3A1337&amp;tr=udp%3A%2F%2Fopen.demonii.com%3A1337&amp;tr=udp%3A%2F%2Ftracker.coppersurfer.tk%3A6969&amp;tr=udp%3A%2F%2Fexodus.desync.com%3A6969","seeders":0,"leechers":0,"uploader":"dascuba","files":1,"time":1467574717,"description":"Ambushed (2013)\r\nR | 1h 36min | Action, Crime, Drama | 16 October 2013 (Philippines)\r\nIn the frenetic underbelly of Los Angeles, Agent Maxwell closes in on an international cocaine smuggling operation run by criminal mastermind Vincent Camastra. When Agent Beverly Royce goes... \r\nDirector: Giorgio Serafini\r\nWriter: Agustin\r\nStars: Dolph Lundgren, Vinnie Jones, Randy Couture |\r\n\r\nGeneral\r\nComplete name                            : AmbushedAMBUSHED_Title1.mp4\r\nFormat                                   : MPEG-4\r\nFormat profile                           : Base Media\r\nCodec ID                                 : isom (isom/iso2/avc1/mp41)\r\nFile size                                : 1 010 MiB\r\nDuration                                 : 1h 37mn\r\nOverall bit rate                         : 1 456 Kbps\r\nMovie name                               : AMBUSHED\r\nGenre                                    : Action\r\nWriting application                      : Lavf54.6.100\r\n\r\nVideo\r\nID                                       : 1\r\nFormat                                   : AVC\r\nFormat/Info                              : Advanced Video Codec\r\nFormat profile                           :   \r\nFormat settings, CABAC                   : No\r\nFormat settings, ReFrames                : 6 frames\r\nCodec ID                                 : avc1\r\nCodec ID/Info                            : Advanced Video Coding\r\nDuration                                 : 1h 37mn\r\nBit rate                                 : 1 196 Kbps\r\nWidth                                    : 720 pixels\r\nHeight                                   : 404 pixels\r\nDisplay aspect ratio                     : 16:9\r\nFrame rate mode                          : Constant\r\nFrame rate                               : 29.970 (30000/1001) fps\r\nColor space                              : YUV\r\nChroma subsampling                       : 4:2:0\r\nBit depth                                : 8 bits\r\nScan type                                : Progressive\r\nBits/(Pixel*Frame)                       : 0.137\r\nStream size                              : 829 MiB (82%)\r\n\r\nAudio\r\nID                                       : 2\r\nFormat                                   : AAC\r\nFormat/Info                              : Advanced Audio Codec\r\nFormat profile                           : LC\r\nCodec ID                                 : 40\r\nDuration                                 : 1h 37mn\r\nBit rate mode                            : Constant\r\nBit rate                                 : 254 Kbps\r\nChannel(s)                               : 2 channels\r\nChannel(s)_Original                      : 6 channels\r\nChannel positions                        : Front: L C R, Side: L R, LFE\r\nSampling rate                            : 44.1 KHz\r\nFrame rate                               : 43.066 fps (1024 spf)\r\nCompression mode                         : Lossy\r\nStream size                              : 176 MiB (17%)\r\nDefault                                  : Yes\r\nAlternate group                          : 1","torrent":{"xt":"urn:btih:5e60bf66dcf024f8e72a578827a40f1927623031","amp;dn":"Ambushed%282013%29MPEG-4%5BDaScubaDude%5D","amp;tr":["udp%3A%2F%2Ftracker.leechers-paradise.org%3A6969","udp%3A%2F%2Fzer0day.ch%3A1337","udp%3A%2F%2Fopen.demonii.com%3A1337","udp%3A%2F%2Ftracker.coppersurfer.tk%3A6969","udp%3A%2F%2Fexodus.desync.com%3A6969"],"infoHash":"5e60bf66dcf024f8e72a578827a40f1927623031","infoHashBuffer":{"type":"Buffer","data":[94,96,191,102,220,240,36,248,231,42,87,136,39,164,15,25,39,98,48,49]},"announce":[],"urlList":[]}}